<?xml version="1.0" standalone="no"?>
<!DOCTYPE svg PUBLIC "-//W3C//DTD SVG 20010904//EN"
 "http://www.w3.org/TR/2001/REC-SVG-20010904/DTD/svg10.dtd">
<svg version="1.0" xmlns="http://www.w3.org/2000/svg"
 width="500.000000pt" height="500.000000pt" viewBox="0 0 500.000000 500.000000"
 preserveAspectRatio="xMidYMid meet">

<g transform="translate(0.000000,500.000000) scale(0.100000,-0.100000)"
fill="#000000" stroke="none">
<path d="M1991 4789 c-150 -9 -291 -37 -449 -88 -650 -212 -1126 -751 -1264
-1432 -20 -101 -23 -142 -23 -359 1 -281 11 -350 90 -589 103 -309 254 -545
493 -773 136 -129 260 -215 442 -306 272 -137 480 -189 785 -198 163 -5 210
-3 330 15 77 12 176 32 220 45 l80 23 5 489 c6 537 10 576 69 680 41 71 94
105 174 111 98 8 158 -32 193 -131 17 -47 19 -99 24 -601 l5 -550 295 0 295 0
5 510 c6 494 6 512 28 577 43 129 122 197 230 198 84 0 140 -41 178 -130 18
-42 19 -84 24 -600 l5 -555 295 0 295 0 0 630 c-1 704 -1 712 -70 852 -87 176
-255 264 -509 265 -195 0 -333 -49 -447 -159 -36 -34 -74 -63 -83 -63 -10 0
-44 26 -75 58 -103 107 -258 163 -456 163 -135 1 -214 -15 -312 -61 -65 -32
-93 -53 -146 -111 -42 -46 -71 -70 -80 -66 -8 3 -30 52 -49 109 l-35 103 -221
3 -222 2 -2 -627 -3 -628 -65 3 c-160 8 -319 48 -469 118 -346 162 -583 428
-705 794 -206 615 83 1302 669 1590 514 253 1119 156 1520 -245 137 -135 241
-298 311 -480 17 -47 26 -59 41 -57 26 5 497 153 503 159 9 9 -53 169 -111
284 -220 441 -613 780 -1086 939 -124 41 -313 78 -431 85 -53 3 -113 7 -132 9
-19 1 -91 -1 -159 -5z"/>
<path d="M4170 564 l0 -96 -31 26 c-24 21 -41 26 -83 26 -92 0 -139 -57 -139
-170 0 -118 43 -170 142 -170 38 0 56 6 79 25 31 26 42 24 42 -7 0 -10 5 -18
10 -18 6 0 10 87 10 240 0 207 -2 240 -15 240 -12 0 -15 -17 -15 -96z m-47
-84 c36 -28 50 -81 44 -159 -4 -57 -9 -69 -36 -93 -36 -32 -85 -37 -130 -13
-77 39 -75 236 3 274 35 17 91 13 119 -9z"/>
<path d="M208 630 c-86 -26 -138 -110 -138 -226 0 -96 35 -167 99 -201 61 -32
211 -33 211 -1 0 5 -18 6 -45 2 -146 -21 -234 56 -235 207 0 149 113 240 245
197 35 -12 45 -12 49 -2 11 28 -118 45 -186 24z"/>
<path d="M1620 615 c0 -26 24 -35 32 -12 7 18 -2 37 -18 37 -8 0 -14 -10 -14
-25z"/>
<path d="M2660 410 c0 -205 2 -230 16 -230 15 0 16 22 12 210 -2 115 0 206 4
202 3 -4 42 -97 86 -207 44 -109 84 -201 89 -202 5 -2 48 92 96 209 l86 213 1
-212 c0 -183 2 -213 15 -213 13 0 15 32 15 229 l0 228 -24 -4 c-21 -4 -35 -30
-103 -199 -43 -107 -80 -194 -84 -194 -3 0 -41 89 -85 197 -67 167 -82 197
-101 200 l-23 3 0 -230z"/>
<path d="M838 590 c-3 -8 -9 -26 -12 -40 -3 -16 -16 -30 -33 -37 l-28 -11 27
-1 26 -1 4 -139 c4 -167 11 -181 90 -181 26 0 48 5 48 10 0 6 -18 10 -40 10
-63 0 -71 22 -68 171 l3 124 48 3 c62 4 61 22 -2 22 l-50 0 -3 43 c-2 23 -6
35 -10 27z"/>
<path d="M515 506 c-36 -15 -18 -31 20 -16 76 29 145 -6 145 -74 l0 -35 -57
-6 c-130 -13 -163 -36 -163 -111 0 -34 5 -47 26 -63 38 -30 110 -28 157 3 l35
24 6 -24 c4 -13 11 -24 16 -24 13 0 13 224 0 272 -6 21 -21 44 -33 53 -26 18
-110 19 -152 1z m165 -190 c0 -18 -10 -48 -23 -67 -39 -58 -129 -66 -163 -14
-38 59 25 115 129 115 l57 0 0 -34z"/>
<path d="M1073 510 c-13 -5 -23 -15 -23 -21 0 -7 8 -9 23 -4 12 3 43 9 68 12
38 4 50 2 66 -14 18 -18 40 -89 31 -98 -2 -2 -39 -8 -82 -14 -86 -10 -125 -31
-140 -73 -11 -32 -1 -73 24 -98 31 -31 119 -28 158 5 37 31 42 31 42 0 0 -14
5 -25 10 -25 6 0 10 54 10 141 l0 141 -29 29 c-25 25 -37 29 -83 28 -29 0 -63
-4 -75 -9z m162 -192 c-12 -61 -27 -87 -60 -102 -87 -41 -159 9 -129 89 11 27
63 44 132 45 l64 0 -7 -32z"/>
<path d="M1380 350 c0 -93 4 -170 9 -170 5 0 11 53 13 118 3 71 10 128 18 145
16 34 57 57 100 57 16 0 30 5 30 10 0 6 -20 10 -44 10 -36 0 -49 -6 -75 -32
l-31 -32 0 32 c0 18 -4 32 -10 32 -6 0 -10 -63 -10 -170z"/>
<path d="M1620 350 c0 -144 2 -170 15 -170 13 0 15 26 15 170 0 144 -2 170
-15 170 -13 0 -15 -26 -15 -170z"/>
<path d="M1770 350 c0 -144 2 -170 15 -170 12 0 15 20 15 120 0 71 5 130 12
145 26 56 116 73 165 31 28 -24 28 -25 31 -160 2 -75 8 -136 13 -136 5 0 9 63
9 141 l0 141 -29 29 c-25 25 -37 29 -83 29 -36 0 -64 -7 -86 -20 l-34 -21 -5
21 c-15 56 -23 3 -23 -150z"/>
<path d="M2183 510 c-13 -5 -23 -15 -23 -21 0 -7 8 -9 23 -4 12 3 43 9 68 12
38 4 50 2 66 -14 18 -18 40 -89 31 -98 -2 -2 -39 -8 -82 -14 -86 -10 -125 -31
-140 -73 -11 -32 -1 -73 24 -98 31 -31 119 -28 158 5 37 31 42 31 42 0 0 -14
5 -25 10 -25 6 0 10 54 10 141 l0 141 -29 29 c-25 25 -37 29 -83 28 -29 0 -63
-4 -75 -9z m162 -192 c-12 -61 -27 -87 -60 -102 -87 -41 -159 9 -129 89 11 27
63 44 132 45 l64 0 -7 -32z"/>
<path d="M3254 501 c-43 -26 -66 -81 -66 -156 0 -111 50 -165 152 -165 69 0
100 8 100 26 0 10 -6 11 -26 4 -41 -16 -106 -12 -141 10 -37 22 -48 41 -58 93
l-7 37 126 0 c141 0 135 -4 115 76 -16 62 -56 94 -117 94 -28 0 -59 -8 -78
-19z m135 -28 c19 -17 33 -43 37 -65 l6 -38 -106 0 -106 0 0 31 c0 22 10 41
34 65 44 44 92 47 135 7z"/>
<path d="M3560 350 c0 -107 4 -170 10 -170 6 0 10 41 10 103 0 166 20 206 109
215 43 4 53 1 75 -21 25 -25 26 -29 26 -162 0 -113 2 -135 15 -135 13 0 15 21
15 133 0 186 -21 216 -141 205 -27 -3 -57 -12 -67 -22 -24 -21 -32 -20 -32 4
0 11 -4 20 -10 20 -6 0 -10 -63 -10 -170z"/>
<path d="M4364 501 c-43 -26 -66 -81 -66 -156 0 -111 50 -165 152 -165 69 0
100 8 100 26 0 10 -6 11 -26 4 -41 -16 -106 -12 -141 10 -37 22 -48 41 -58 93
l-7 37 126 0 c141 0 135 -4 115 76 -16 62 -56 94 -117 94 -28 0 -59 -8 -78
-19z m135 -28 c19 -17 33 -43 37 -65 l6 -38 -106 0 -106 0 0 31 c0 22 10 41
34 65 44 44 92 47 135 7z"/>
<path d="M4674 497 c-32 -28 -37 -76 -10 -105 9 -11 48 -31 87 -47 104 -41
127 -95 56 -131 -30 -16 -107 -15 -149 1 -12 5 -18 2 -18 -8 0 -19 30 -27 103
-27 61 0 110 18 121 45 24 64 -6 106 -103 143 -94 36 -118 94 -51 122 30 12
97 10 133 -5 12 -5 17 -2 17 8 0 19 -30 27 -102 27 -45 0 -62 -5 -84 -23z"/>
</g>
</svg>
