<?xml version="1.0" standalone="no"?>
<!DOCTYPE svg PUBLIC "-//W3C//DTD SVG 20010904//EN"
 "http://www.w3.org/TR/2001/REC-SVG-20010904/DTD/svg10.dtd">
<svg version="1.0" xmlns="http://www.w3.org/2000/svg"
 width="500.000000pt" height="500.000000pt" viewBox="0 0 500.000000 500.000000"
 preserveAspectRatio="xMidYMid meet">

<g transform="translate(0.000000,500.000000) scale(0.100000,-0.100000)"
fill="#000000" stroke="none">
<path d="M2220 4024 c-252 -22 -485 -104 -679 -237 -41 -29 -120 -97 -176
-152 -201 -198 -329 -443 -376 -718 -26 -152 -22 -380 10 -518 75 -326 265
-616 526 -801 145 -103 270 -161 450 -210 192 -52 467 -51 665 2 l75 21 -3
237 c-3 242 9 468 28 533 46 159 218 201 282 71 23 -46 23 -53 26 -444 l3
-398 209 0 208 0 4 363 c5 395 10 432 65 498 75 89 198 75 246 -29 21 -45 22
-61 25 -439 l3 -393 210 0 210 0 -4 463 c-3 377 -6 471 -19 512 -50 165 -139
238 -324 267 -143 22 -301 -22 -385 -108 -24 -24 -51 -44 -60 -44 -10 0 -40
22 -68 49 -59 58 -128 87 -243 103 -161 23 -316 -25 -402 -125 -31 -34 -49
-48 -56 -41 -5 5 -21 41 -33 79 l-24 70 -157 0 -157 0 -2 -445 -2 -445 -75 3
c-226 11 -490 150 -647 342 -67 82 -156 259 -185 370 -33 123 -32 338 1 460
47 168 117 294 236 419 172 181 383 276 637 288 184 9 313 -18 473 -99 199
-100 356 -270 441 -475 15 -38 30 -71 34 -76 5 -5 355 97 369 109 16 14 -102
265 -176 370 -65 95 -252 280 -343 339 -160 106 -340 179 -512 209 -92 16
-258 26 -328 20z"/>
<path d="M3770 1009 l0 -70 -26 20 c-36 28 -86 27 -120 -3 -24 -20 -28 -32
-32 -88 -5 -78 7 -104 55 -125 39 -16 78 -11 106 14 15 15 17 15 17 0 0 -10 5
-17 10 -17 6 0 10 63 10 170 0 107 -4 170 -10 170 -6 0 -10 -30 -10 -71z m-24
-70 c14 -16 19 -36 19 -84 0 -78 -19 -105 -75 -105 -43 0 -74 29 -83 76 -7 38
8 97 29 119 23 23 87 19 110 -6z"/>
<path d="M925 1050 c-91 -37 -116 -199 -42 -278 27 -29 88 -45 138 -37 59 10
47 20 -19 17 -47 -3 -62 0 -86 19 -54 43 -70 123 -40 198 25 63 89 92 158 72
35 -9 51 1 20 13 -22 9 -105 6 -129 -4z"/>
<path d="M1950 1045 c0 -8 5 -15 10 -15 6 0 10 7 10 15 0 8 -4 15 -10 15 -5 0
-10 -7 -10 -15z"/>
<path d="M2690 901 c0 -106 4 -161 10 -161 7 0 10 48 9 141 0 77 1 142 2 144
2 2 30 -60 61 -138 31 -78 61 -143 66 -145 4 -1 32 58 61 131 29 73 57 140 62
148 5 9 9 -41 9 -133 0 -95 4 -148 10 -148 7 0 10 55 8 158 -4 205 -13 207
-88 20 -30 -76 -58 -138 -61 -138 -4 0 -31 62 -61 138 -36 91 -60 138 -71 140
-15 3 -17 -13 -17 -157z"/>
<path d="M1386 1009 c-4 -15 -17 -31 -29 -37 l-22 -11 23 0 c21 -1 22 -4 22
-101 0 -95 1 -100 25 -116 18 -12 33 -14 52 -8 l28 8 -35 4 c-19 2 -38 9 -42
15 -4 7 -8 54 -8 105 l0 92 36 0 c21 0 33 4 29 10 -3 6 -19 10 -35 10 -24 0
-29 5 -32 28 l-4 27 -8 -26z"/>
<path d="M1168 973 c-37 -9 -16 -20 31 -15 44 4 51 2 66 -21 29 -45 17 -61
-47 -67 -65 -6 -98 -30 -98 -70 0 -43 23 -65 68 -65 24 0 48 7 59 18 24 21 33
22 33 2 0 -8 5 -15 11 -15 8 0 10 30 7 102 -5 90 -8 104 -28 120 -21 17 -63
22 -102 11z m109 -150 c-8 -46 -38 -73 -81 -73 -40 0 -56 15 -56 52 0 23 7 32
33 43 17 8 49 14 71 15 l39 0 -6 -37z"/>
<path d="M1558 973 c-37 -10 -16 -20 32 -15 60 6 80 -8 80 -54 0 -34 0 -34
-47 -34 -60 0 -95 -18 -107 -52 -7 -20 -5 -33 7 -51 23 -35 61 -42 108 -19 36
18 40 18 49 3 6 -11 9 15 10 82 0 91 -2 100 -25 122 -23 24 -61 30 -107 18z
m112 -147 c0 -43 -38 -76 -86 -76 -38 0 -59 28 -50 66 7 25 45 41 104 43 30 1
32 -1 32 -33z"/>
<path d="M1816 959 c-21 -17 -26 -18 -26 -5 0 9 -4 16 -10 16 -6 0 -10 -45
-10 -115 0 -70 4 -115 10 -115 6 0 10 35 10 84 0 98 20 136 71 136 16 0 29 5
29 10 0 18 -46 11 -74 -11z"/>
<path d="M1957 973 c-11 -11 -8 -233 3 -233 6 0 10 47 10 120 0 66 -1 120 -3
120 -2 0 -7 -3 -10 -7z"/>
<path d="M2058 974 c-11 -11 -10 -234 1 -234 5 0 11 40 13 89 4 108 18 131 83
131 22 0 46 -5 53 -12 8 -8 12 -47 12 -110 0 -59 4 -98 10 -98 6 0 10 38 10
95 0 88 -2 98 -25 120 -28 29 -80 33 -111 10 -25 -19 -32 -19 -36 1 -2 9 -6
12 -10 8z"/>
<path d="M2353 970 c-35 -14 -28 -17 34 -16 53 1 58 -1 71 -27 21 -42 10 -57
-42 -57 -82 0 -127 -40 -106 -95 17 -45 99 -57 131 -19 15 19 27 18 32 -3 3
-10 5 28 6 85 1 90 -1 104 -19 122 -21 21 -68 25 -107 10z m111 -119 c9 -14
-12 -72 -31 -87 -31 -23 -80 -17 -99 11 -15 23 -15 27 0 49 8 14 26 27 38 29
42 8 87 7 92 -2z"/>
<path d="M3120 967 c-13 -7 -30 -24 -37 -37 -18 -35 -16 -126 3 -155 20 -31
72 -48 118 -39 56 10 51 21 -8 16 -44 -4 -56 -1 -79 19 -14 13 -29 36 -33 52
l-6 27 86 0 c98 0 106 6 86 65 -20 59 -73 81 -130 52z m86 -15 c15 -10 34 -47
34 -66 0 -13 -14 -16 -75 -16 -72 0 -75 1 -75 23 0 49 75 87 116 59z"/>
<path d="M3330 863 c0 -76 4 -123 10 -123 6 0 10 37 10 90 0 107 14 130 79
130 58 0 71 -24 71 -132 0 -52 4 -88 10 -88 13 0 13 121 0 175 -5 22 -17 45
-26 52 -23 17 -72 16 -106 -1 -25 -13 -29 -13 -38 2 -6 12 -9 -20 -10 -105z"/>
<path d="M3911 966 c-35 -19 -50 -54 -51 -113 0 -87 54 -131 144 -116 56 9 42
20 -18 15 -49 -4 -57 -2 -81 22 -18 18 -25 35 -23 54 3 27 3 27 73 24 87 -3
100 4 91 51 -12 64 -78 95 -135 63z m103 -28 c9 -12 16 -33 16 -45 0 -22 -4
-23 -75 -23 -67 0 -75 2 -75 19 0 10 9 30 21 45 27 35 90 37 113 4z"/>
<path d="M4132 964 c-17 -12 -22 -24 -20 -47 3 -29 10 -35 71 -64 56 -27 67
-37 67 -57 0 -36 -32 -50 -97 -43 -57 6 -65 -6 -11 -17 48 -10 97 3 115 31 24
37 4 69 -61 98 -65 29 -84 55 -59 80 13 13 29 16 70 13 54 -5 72 5 31 16 -40
10 -83 6 -106 -10z"/>
</g>
</svg>
